 <svg version="1.0" xmlns="http://www.w3.org/2000/svg" width="700.000000pt" height="700.000000pt" viewBox="0 0 700.000000 700.000000" preserveAspectRatio="xMidYMid meet">
<metadata>
Created by potrace 1.12, written by Peter Selinger 2001-2015
</metadata>
<g id="freak" transform="translate(0.000000,700.000000) scale(0.100000,-0.100000)" fill="#000000" stroke="none">
<path d="M2945 6836 c-33 -13 -106 -44 -163 -69 -56 -26 -107 -47 -112 -47 -6
0 -34 13 -63 29 -67 38 -153 52 -246 41 -222 -28 -501 -191 -557 -325 -9 -23
-18 -81 -22 -138 l-5 -98 -111 -74 c-61 -41 -124 -86 -141 -99 l-30 -25 75
-73 c42 -40 138 -122 215 -183 164 -128 280 -239 299 -286 10 -26 13 -95 12
-296 l-2 -261 -76 -52 c-122 -81 -218 -199 -273 -337 -28 -69 -55 -195 -55
-254 0 -39 -5 -47 -83 -123 -45 -44 -137 -144 -204 -221 -66 -77 -136 -155
-156 -173 -34 -34 -35 -34 -67 -17 -47 24 -155 45 -239 45 l-74 0 6 83 c3 45
24 156 47 247 51 201 63 352 36 425 -24 62 -128 157 -197 180 -103 34 -226 6
-331 -77 -68 -54 -93 -106 -137 -286 -46 -188 -69 -330 -137 -817 -39 -276
-48 -368 -48 -490 -1 -170 9 -226 59 -325 29 -57 34 -77 38 -165 8 -173 76
-352 235 -621 91 -154 153 -215 278 -269 49 -21 114 -44 144 -52 73 -17 250
-16 328 2 151 36 316 120 453 230 38 31 70 52 70 48 6 -40 -11 -482 -51 -1346
-11 -236 -20 -460 -20 -498 l0 -69 108 0 109 0 6 392 c4 215 7 529 7 697 1
168 5 376 10 461 5 85 14 297 20 470 14 424 10 405 114 585 63 109 74 146 52
180 -20 30 -43 23 -66 -19 -7 -14 -19 -26 -27 -26 -16 0 -16 6 2 66 25 82 18
113 -24 99 -21 -6 -51 -71 -51 -110 0 -33 -12 -31 -33 5 -21 34 -52 54 -73 46
-20 -8 -18 -70 5 -114 31 -62 33 -96 15 -240 l-17 -137 -105 -159 c-128 -195
-207 -277 -321 -334 -99 -50 -191 -67 -326 -59 -304 17 -537 229 -640 583 -38
132 -40 130 68 74 132 -70 214 -91 377 -97 167 -7 248 11 412 89 106 50 113
55 183 140 142 169 234 328 270 468 23 90 17 239 -12 295 -53 100 -186 162
-326 153 l-52 -3 2 33 c2 49 45 127 124 225 78 96 243 277 264 289 8 5 30 -16
64 -61 28 -38 113 -129 189 -201 l137 -131 7 -342 c3 -188 9 -368 13 -400 23
-212 165 -438 320 -511 163 -77 364 -140 564 -178 160 -31 571 -33 726 -4 376
69 630 203 806 423 62 78 89 139 113 254 47 229 27 463 -85 969 l-12 55 50 66
c27 36 76 108 108 160 32 52 59 96 62 98 8 10 289 -287 301 -318 1 -4 -15 -13
-37 -20 -90 -27 -143 -117 -149 -256 -4 -84 -2 -94 25 -145 27 -51 35 -58 118
-100 85 -43 90 -47 88 -75 -2 -17 -12 -107 -22 -201 -29 -249 -66 -697 -59
-715 9 -24 135 -85 232 -113 169 -49 510 -86 802 -86 l159 0 -34 -28 c-257
-207 -438 -284 -666 -285 -139 0 -223 16 -403 75 -136 45 -134 43 -147 138 -3
30 -27 134 -51 230 -57 222 -62 311 -21 390 l27 52 -21 16 -20 17 30 57 c17
32 31 69 31 82 0 53 -46 45 -79 -14 -35 -62 -51 -53 -48 27 2 56 -1 68 -15 71
-35 7 -51 -43 -58 -173 -3 -71 -10 -128 -17 -137 -10 -11 -7 -31 13 -92 37
-118 113 -689 178 -1341 35 -345 45 -486 56 -810 5 -154 13 -328 16 -387 l7
-108 100 0 100 0 -7 127 c-16 309 -57 756 -121 1343 -19 173 -35 322 -35 331
0 15 7 14 58 -6 106 -43 219 -58 402 -52 265 8 373 43 624 197 307 190 484
400 568 675 12 38 34 89 49 114 54 84 48 189 -15 294 l-34 56 34 11 c47 16 91
55 115 102 49 96 65 296 29 356 -23 38 -71 69 -119 78 l-34 7 46 42 c114 104
95 280 -43 408 -54 50 -143 97 -184 97 -10 0 -15 24 -19 88 -3 54 -16 120 -33
174 -24 78 -35 96 -97 165 -84 94 -108 131 -133 203 -28 81 -24 344 10 733 25
284 26 310 12 332 -36 54 -112 71 -371 81 -170 7 -171 7 -198 -17 -32 -28 -39
-74 -57 -379 -18 -315 -39 -461 -79 -538 -24 -46 -119 -138 -233 -225 -103
-79 -141 -123 -171 -197 -21 -51 -22 -69 -21 -267 1 -117 -1 -213 -5 -213 -4
0 -29 23 -56 51 -28 28 -90 84 -140 124 -142 115 -139 110 -131 203 13 155
-37 303 -137 410 -65 69 -126 110 -304 206 -78 42 -151 85 -162 94 -13 11 -31
59 -51 137 -102 387 -206 582 -329 615 -80 21 -387 69 -542 85 -90 9 -170 18
-176 20 -9 3 -13 25 -13 63 0 33 -16 153 -35 268 -19 115 -41 264 -49 332 -8
68 -15 125 -17 127 -2 1 -31 -7 -64 -19z m-470 -214 c21 -11 -6 -27 -317 -184
l-208 -105 0 32 c0 43 44 128 86 165 48 42 125 79 198 96 66 15 212 13 241 -4z
m441 -213 c17 -123 33 -232 35 -242 3 -15 -19 -29 -118 -72 -208 -90 -384
-190 -586 -334 l-126 -89 -73 50 c-122 84 -318 258 -318 283 0 7 55 44 123 83
67 38 219 127 337 196 217 128 665 359 684 353 5 -2 24 -104 42 -228z m479
-499 c291 -37 435 -88 493 -174 34 -51 40 -69 147 -441 36 -126 113 -369 170
-540 56 -170 108 -344 115 -385 7 -41 41 -226 76 -410 91 -474 117 -655 118
-830 1 -142 0 -146 -30 -210 -35 -74 -150 -203 -244 -273 -136 -103 -354 -190
-566 -228 -171 -30 -461 -37 -613 -15 -327 48 -635 217 -727 398 -14 28 -32
80 -40 117 -23 101 -37 775 -30 1501 5 562 0 803 -20 1067 -10 121 -22 110
291 286 176 99 274 139 385 156 85 13 287 5 475 -19z m2698 -116 c15 -5 17
-18 17 -97 0 -51 -9 -193 -20 -317 -22 -247 -25 -469 -10 -570 15 -93 48 -152
144 -258 110 -120 140 -180 140 -279 1 -53 -3 -76 -13 -82 -16 -10 -124 -26
-241 -36 -235 -21 -329 -66 -389 -187 -44 -86 -40 -160 10 -229 10 -14 6 -22
-24 -48 -55 -49 -81 -125 -81 -241 0 -70 4 -103 16 -126 20 -37 83 -94 103
-94 23 0 19 -9 -26 -57 -60 -66 -82 -122 -77 -199 3 -50 10 -72 34 -106 63
-90 188 -158 379 -205 55 -14 101 -26 102 -27 6 -5 -25 -208 -33 -216 -31 -31
-418 -18 -620 21 -102 19 -239 62 -258 80 -5 5 -2 60 8 136 28 218 45 403 52
564 l6 154 33 35 c60 64 70 94 70 205 0 111 -20 173 -72 223 l-28 27 5 310 c5
268 8 315 23 350 12 26 83 103 202 220 l183 180 21 90 c20 91 45 286 56 450
10 147 26 319 31 334 4 11 26 12 122 7 64 -4 125 -9 135 -12z m-1695 -795
c108 -53 195 -136 243 -234 31 -63 34 -79 37 -175 4 -93 1 -115 -21 -178 -24
-69 -91 -176 -136 -217 -28 -24 -36 -14 -51 65 -6 30 -17 77 -25 104 -13 46
-12 52 10 95 13 25 39 70 58 100 30 47 35 51 40 31 9 -36 -10 -129 -43 -197
-38 -82 -39 -103 -4 -103 74 0 158 204 134 329 -27 145 -117 256 -261 321 -60
26 -79 40 -89 64 -8 17 -15 35 -18 40 -7 13 37 -2 126 -45z m-19 -215 c24 -31
27 -57 7 -73 -19 -16 -36 8 -43 59 -7 47 6 52 36 14z m-2259 -20 c0 -8 -31
-47 -68 -87 -131 -138 -193 -340 -151 -492 14 -50 68 -105 103 -105 38 0 41
19 12 90 -24 60 -34 120 -19 120 3 0 28 -10 54 -22 l48 -23 1 -127 c0 -147 -2
-150 -81 -99 -48 31 -87 70 -142 145 -31 41 -37 57 -37 100 1 152 71 315 187
437 77 80 93 91 93 63z m2320 -163 c-22 -45 -30 -51 -30 -22 0 19 39 75 47 67
2 -2 -5 -22 -17 -45z m-2320 -74 c0 -69 -6 -83 -27 -66 -25 22 -11 129 17 129
6 0 10 -28 10 -63z m-1382 2 c81 -51 76 -177 -23 -599 -24 -102 -49 -223 -56
-269 -11 -80 -8 -255 5 -268 13 -13 67 52 107 130 34 65 47 82 77 94 47 20
180 13 241 -12 59 -25 71 -56 71 -193 0 -60 2 -111 5 -114 3 -3 31 4 63 15
120 41 246 6 287 -80 65 -133 -2 -348 -155 -503 -99 -99 -195 -136 -437 -166
-151 -19 -222 -13 -325 25 -124 47 -279 175 -321 264 -43 91 -6 692 68 1090
36 195 91 420 114 464 22 43 81 103 126 127 34 19 119 16 153 -5z m5766 -514
c122 -26 181 -76 181 -154 0 -84 -70 -130 -195 -131 -97 0 -328 17 -405 31
-159 27 -235 67 -235 123 0 14 12 39 28 56 22 25 45 35 127 55 130 31 136 32
295 33 85 1 160 -4 204 -13z m-1267 -257 c22 -14 49 -45 62 -69 21 -39 22 -49
12 -85 -15 -55 -49 -90 -102 -104 -60 -16 -107 -6 -144 30 -28 28 -30 35 -30
103 0 64 4 79 28 116 l29 43 53 -4 c35 -3 67 -13 92 -30z m1128 -189 c290 -40
330 -50 350 -89 18 -35 19 -130 2 -180 -8 -21 -25 -42 -47 -55 -31 -18 -50
-20 -185 -19 -123 2 -188 9 -358 38 -114 20 -225 43 -247 52 -103 41 -128 154
-51 228 68 65 200 71 536 25z m-45 -489 c208 -30 238 -39 280 -79 27 -26 40
-48 45 -78 9 -59 -9 -93 -70 -123 -46 -23 -61 -25 -175 -24 -128 1 -326 29
-425 60 -103 33 -175 93 -175 147 0 41 33 89 74 109 36 17 56 18 176 13 74 -3
196 -14 270 -25z m230 -481 c0 -3 -18 -35 -41 -70 -38 -60 -204 -239 -221
-239 -14 0 -5 154 17 285 l5 30 120 0 c66 0 120 -3 120 -6z"></path>
<path d="M3263 5255 c-42 -18 -66 -57 -67 -110 -2 -111 130 -171 229 -104 66
46 74 108 19 169 -51 56 -117 73 -181 45z m72 -110 c0 -25 -40 -33 -49 -10 -9
24 2 37 27 33 14 -2 22 -10 22 -23z"></path>
<path d="M2715 5227 c-94 -94 -50 -244 70 -241 83 2 145 66 145 149 0 30 -7
44 -35 71 -34 31 -87 54 -128 54 -11 0 -34 -15 -52 -33z m100 -107 c0 -16 -6
-26 -18 -28 -19 -4 -32 20 -23 44 9 25 41 13 41 -16z"></path>
<path d="M3495 4789 c-77 -31 -262 -76 -341 -83 -46 -5 -107 -1 -175 9 -202
31 -250 35 -291 26 -52 -12 -55 -17 -29 -45 35 -37 114 -76 188 -91 92 -20
443 -20 533 -1 86 19 168 50 204 79 l30 24 -25 49 c-13 26 -28 49 -34 51 -5 1
-32 -7 -60 -18z"></path>
<path d="M3736 4529 c-15 -12 -26 -30 -26 -45 0 -20 7 -26 45 -35 76 -19 76
-35 2 -58 -206 -63 -471 -63 -942 0 -120 16 -257 29 -302 29 -80 0 -83 -1 -83
-23 0 -55 55 -90 171 -107 41 -6 89 -16 107 -22 29 -9 32 -13 27 -37 -5 -22
18 -71 111 -246 64 -121 143 -275 175 -342 55 -117 59 -123 111 -152 79 -46
151 -65 248 -66 153 0 215 44 295 209 47 98 66 194 71 366 7 223 7 223 57 247
23 11 69 41 101 67 l60 46 25 -47 c30 -55 55 -64 94 -33 l26 21 -24 67 c-17
46 -36 78 -63 103 -76 72 -229 103 -286 58z m-418 -314 c106 -8 197 -17 202
-20 11 -7 12 -160 2 -220 l-8 -40 -84 3 c-93 4 -337 28 -375 38 -18 4 -37 32
-79 115 -31 59 -56 118 -56 129 0 23 1 23 398 -5z m-38 -467 c-1 -26 -39 -98
-52 -98 -8 0 -38 15 -68 34 -52 33 -53 34 -30 46 56 30 150 41 150 18z m128
-22 c39 -20 71 -58 74 -86 3 -25 3 -25 -77 -22 -44 2 -82 5 -84 7 -3 4 51 115
57 115 1 0 15 -6 30 -14z"></path>
<path d="M3147 3342 c-28 -30 -19 -44 69 -104 112 -77 261 -123 310 -97 26 14
31 40 11 57 -7 6 -38 20 -70 32 -31 12 -57 26 -57 31 0 5 21 9 48 9 82 0 93 7
90 52 l-3 40 -188 1 c-184 2 -189 2 -210 -21z"></path>
<path d="M4396 2406 c11 -46 -4 -64 -96 -112 -121 -62 -170 -102 -205 -165
-25 -45 -30 -65 -30 -124 0 -59 5 -79 30 -124 48 -87 137 -146 260 -171 218
-45 399 105 382 317 -10 132 -124 295 -259 372 -67 39 -91 40 -82 7z m151
-129 c106 -100 155 -218 133 -321 -26 -128 -112 -196 -245 -196 -39 0 -92 7
-118 16 -44 15 -147 95 -147 115 0 17 20 9 57 -25 44 -39 113 -76 143 -76 26
0 26 16 0 23 -29 7 -42 50 -45 146 -3 94 -10 104 -65 94 -19 -3 -42 -5 -50 -4
-8 1 -25 2 -37 2 -27 1 -29 17 -8 45 13 16 16 17 25 4 9 -14 14 -7 11 13 -1 4
6 7 16 5 10 -2 22 7 29 20 17 35 56 72 73 71 11 0 8 -4 -7 -11 -22 -11 -28
-47 -7 -40 6 2 29 9 52 15 41 11 44 14 58 67 29 102 34 111 58 98 12 -6 45
-33 74 -61z"></path>
<path d="M4515 2220 c-3 -5 -15 -10 -25 -10 -24 0 -43 -33 -29 -47 7 -7 4 -15
-10 -25 -12 -8 -18 -18 -14 -21 3 -4 -1 -7 -10 -7 -22 0 -31 -18 -17 -34 8
-11 4 -19 -19 -37 -38 -31 -48 -78 -23 -109 13 -17 32 -24 71 -28 43 -4 54 -9
61 -27 5 -13 6 -32 3 -44 -3 -11 -3 -28 1 -36 5 -14 9 -14 33 -1 54 28 113
109 113 156 0 11 -5 20 -12 20 -6 0 -4 6 6 13 42 31 -6 179 -73 226 -32 23
-47 26 -56 11z m15 -135 c6 -8 15 -14 18 -13 47 6 56 -17 10 -26 -22 -4 -37
-1 -49 10 -11 10 -28 15 -43 12 -22 -4 -24 -3 -15 13 12 23 61 25 79 4z m90
-75 c6 -11 8 -20 6 -20 -3 0 -10 9 -16 20 -6 11 -8 20 -6 20 3 0 10 -9 16 -20z"></path>
</g>
</svg>
