<?xml version="1.0" standalone="no"?>
<!DOCTYPE svg PUBLIC "-//W3C//DTD SVG 20010904//EN"
 "http://www.w3.org/TR/2001/REC-SVG-20010904/DTD/svg10.dtd">
<svg version="1.0" xmlns="http://www.w3.org/2000/svg"
 width="900.000000pt" height="927.000000pt" viewBox="0 0 900.000000 927.000000"
 preserveAspectRatio="xMidYMid meet">
<metadata>
Created by potrace 1.10, written by Peter Selinger 2001-2011
</metadata>
<g transform="translate(0.000000,927.000000) scale(0.100000,-0.100000)"
fill="#000000" stroke="none">
<path d="M3795 9058 c-37 -13 -70 -27 -165 -72 -138 -64 -192 -86 -211 -86
-10 0 -37 13 -61 28 -74 48 -106 56 -238 60 -96 3 -139 -1 -185 -14 -82 -23
-172 -52 -193 -63 -9 -5 -50 -25 -90 -45 -147 -74 -275 -174 -327 -256 -26
-41 -45 -149 -45 -254 l0 -75 -42 -34 c-47 -37 -136 -97 -144 -97 -6 0 -119
-84 -151 -113 -26 -23 -19 -43 26 -84 14 -14 44 -41 66 -62 22 -20 76 -65 120
-99 115 -89 165 -129 204 -163 19 -16 52 -43 75 -59 67 -49 211 -202 235 -251
22 -44 23 -54 16 -175 -10 -180 -10 -259 0 -409 l8 -130 -64 -39 c-261 -159
-421 -409 -459 -716 -6 -52 -13 -105 -16 -117 -2 -12 -53 -71 -112 -130 -118
-119 -158 -163 -234 -256 -28 -34 -59 -69 -67 -78 -9 -9 -51 -55 -95 -102 -49
-55 -86 -87 -99 -87 -11 0 -38 8 -61 19 -65 30 -142 44 -266 50 l-115 6 -3 45
c-4 47 20 193 44 269 8 25 14 54 14 65 0 11 6 38 14 61 39 113 69 307 64 411
-4 97 -29 152 -101 227 -113 116 -244 159 -385 126 -68 -16 -165 -67 -222
-117 -49 -43 -120 -148 -120 -179 0 -8 -7 -36 -15 -62 -27 -87 -61 -236 -89
-386 -8 -44 -21 -119 -30 -166 -9 -48 -16 -100 -16 -115 0 -16 -6 -65 -14
-109 -17 -92 -34 -218 -46 -325 -4 -41 -13 -109 -20 -150 -62 -400 -72 -567
-45 -741 15 -103 39 -175 80 -245 22 -37 27 -59 30 -137 7 -180 38 -307 119
-490 20 -45 85 -179 96 -197 20 -32 96 -166 103 -180 8 -16 14 -26 60 -100 46
-73 143 -155 237 -201 162 -79 209 -93 345 -109 139 -16 302 7 465 65 43 16
202 92 245 118 46 28 110 70 115 76 3 3 21 18 40 32 19 15 47 38 63 52 15 15
35 27 45 29 14 3 17 -4 14 -42 -1 -25 -7 -196 -12 -380 -5 -184 -14 -427 -20
-540 -6 -113 -15 -297 -21 -410 -6 -113 -14 -322 -19 -465 -5 -143 -14 -327
-20 -410 -5 -82 -10 -218 -10 -301 l0 -151 25 -11 c14 -6 31 -9 39 -6 7 3 60
8 117 12 l104 7 6 370 c3 204 7 663 8 1020 1 358 6 706 11 775 9 120 17 297
40 885 12 313 17 335 100 475 72 122 120 223 120 255 0 31 -33 65 -57 59 -10
-3 -29 -23 -43 -45 -13 -21 -28 -39 -32 -39 -19 0 -20 36 -4 84 19 54 18 137
0 143 -6 2 -25 -7 -41 -21 -21 -18 -32 -39 -41 -84 -13 -61 -37 -88 -49 -54
-11 31 -56 72 -80 72 -23 0 -43 -26 -43 -55 0 -9 14 -44 31 -78 30 -58 32 -69
32 -164 -1 -102 -27 -315 -43 -343 -5 -8 -28 -46 -52 -83 -24 -37 -48 -76 -53
-85 -102 -171 -250 -342 -355 -411 -106 -69 -174 -94 -319 -117 -241 -39 -485
33 -675 200 -58 51 -150 161 -193 231 -18 29 -78 154 -96 200 -37 94 -81 260
-73 273 4 7 22 0 49 -17 247 -166 590 -218 887 -135 67 19 86 27 222 93 89 43
116 62 165 115 72 79 91 101 128 151 16 22 32 42 35 45 13 11 91 131 115 176
14 27 30 56 34 64 12 21 36 77 54 125 40 105 48 155 48 272 0 104 -3 125 -25
175 -64 145 -175 209 -371 214 -60 2 -114 4 -119 4 -18 0 6 105 36 159 55 99
225 308 383 469 84 86 102 93 123 49 12 -25 148 -186 201 -237 20 -19 84 -79
142 -133 l106 -98 7 -177 c4 -97 11 -319 16 -492 8 -260 13 -328 29 -392 23
-89 45 -158 62 -190 75 -144 103 -184 181 -260 50 -48 149 -118 166 -118 6 0
23 -6 39 -14 74 -37 157 -69 278 -106 55 -17 120 -38 145 -46 25 -8 54 -14 64
-14 11 0 42 -6 70 -14 28 -8 94 -22 146 -30 397 -64 783 -44 1155 59 28 8 59
16 70 19 11 2 45 14 75 26 30 12 67 25 82 30 36 11 172 80 223 112 161 102
371 320 417 433 49 119 76 253 82 405 6 136 -6 374 -24 485 -35 212 -75 405
-117 555 l-16 61 30 32 c39 42 93 113 93 122 0 4 13 24 28 44 16 20 32 43 36
51 4 8 12 24 19 35 64 103 81 125 94 125 20 0 191 -174 313 -319 25 -30 51
-60 58 -67 18 -19 15 -34 -8 -34 -29 0 -93 -34 -126 -68 -84 -84 -125 -259
-90 -387 28 -108 64 -147 186 -203 112 -51 114 -55 102 -139 -19 -118 -48
-394 -83 -778 -17 -182 -25 -333 -19 -351 6 -16 114 -84 135 -84 8 0 16 -4 19
-9 5 -8 90 -37 196 -66 97 -27 432 -75 522 -75 31 0 133 -7 225 -16 161 -16
364 -15 406 1 16 7 16 5 7 -16 -15 -31 -175 -149 -335 -246 -35 -21 -145 -73
-188 -89 -129 -46 -189 -56 -355 -56 -193 0 -282 16 -497 89 -38 14 -83 28
-100 32 -44 12 -83 32 -88 45 -2 6 -12 56 -21 111 -17 97 -33 167 -61 270 -90
332 -93 400 -22 542 l21 42 -22 24 c-28 29 -28 39 2 86 45 70 58 113 45 138
-7 13 -17 23 -23 23 -22 0 -57 -32 -76 -69 -20 -40 -45 -58 -56 -40 -3 6 -3
41 0 78 11 109 -33 136 -74 44 -16 -38 -20 -67 -20 -170 0 -94 -4 -131 -16
-155 -18 -35 -16 -53 19 -188 27 -100 46 -211 71 -400 35 -269 70 -549 90
-730 8 -74 22 -196 30 -270 9 -74 18 -162 20 -195 3 -33 9 -103 15 -155 24
-217 33 -324 41 -485 5 -93 14 -249 20 -345 5 -96 10 -242 10 -325 0 -82 5
-197 11 -255 5 -58 14 -165 19 -239 12 -178 14 -181 126 -181 134 0 126 -14
119 223 -9 321 -62 996 -110 1397 -9 69 -15 139 -15 155 0 17 -6 85 -15 153
-8 67 -22 177 -30 245 -9 67 -15 140 -15 162 0 22 -7 78 -15 125 -17 98 -11
112 38 89 82 -40 185 -66 322 -80 109 -11 376 -4 440 12 22 5 63 14 90 19 89
16 196 48 235 71 8 5 38 20 65 34 28 15 64 35 80 45 17 11 39 24 50 30 135 72
341 225 456 339 60 60 175 204 193 241 10 22 30 56 42 71 17 23 81 182 119
299 10 30 30 72 45 95 26 40 44 85 54 140 11 58 -45 227 -98 294 -8 10 -5 18
13 32 13 11 31 19 40 19 19 0 111 77 111 92 0 7 6 19 13 27 31 37 67 222 67
339 0 96 -59 179 -142 202 -19 6 -43 16 -53 24 -19 14 -18 16 27 55 72 64 88
104 88 217 0 91 -9 132 -41 184 -5 8 -13 24 -18 36 -13 30 -132 136 -178 158
-21 10 -50 25 -65 32 -14 8 -37 14 -50 14 -38 0 -48 19 -48 86 0 86 -30 227
-66 312 -8 18 -14 38 -14 45 0 12 -13 27 -118 142 -59 66 -122 157 -122 177 0
8 -4 18 -10 24 -5 5 -16 45 -25 89 -25 131 -19 372 20 795 8 85 19 211 25 280
22 262 18 270 -152 311 -63 15 -120 19 -317 19 -217 1 -243 0 -265 -17 -33
-24 -46 -81 -56 -248 -5 -77 -14 -221 -20 -320 -19 -312 -47 -496 -89 -585
-23 -49 -67 -105 -125 -159 -27 -25 -56 -53 -65 -62 -9 -9 -61 -50 -116 -91
-141 -105 -190 -165 -230 -278 -18 -50 -20 -78 -18 -317 2 -172 -1 -264 -8
-269 -6 -3 -58 41 -117 98 -59 57 -132 122 -162 145 -82 60 -138 117 -146 148
-4 14 -3 52 1 83 11 78 11 108 -4 194 -32 184 -117 316 -286 444 -22 17 -47
34 -55 37 -8 4 -28 16 -45 26 -34 22 -104 61 -297 165 -94 51 -103 60 -122
128 -9 35 -24 88 -32 118 -9 30 -21 75 -29 100 -7 25 -20 72 -30 105 -10 33
-24 75 -31 93 -8 18 -14 40 -14 48 0 18 -80 187 -123 259 -49 82 -127 150
-195 169 -32 9 -69 16 -82 16 -13 0 -49 6 -79 14 -64 16 -176 35 -271 46 -36
4 -96 13 -135 19 -38 6 -132 16 -207 23 -76 6 -142 14 -148 18 -5 3 -12 51
-15 105 -6 108 -19 191 -79 515 -9 47 -16 99 -16 115 0 17 -7 85 -17 153 -19
132 -18 130 -78 110z m-689 -268 c90 -16 93 -18 64 -41 -14 -10 -153 -83 -310
-161 -157 -78 -292 -147 -300 -154 -8 -7 -27 -16 -42 -19 -33 -8 -35 3 -15 75
23 81 61 134 142 195 75 56 136 81 250 100 92 16 139 17 211 5z m594 -19 c5
-11 10 -39 10 -62 0 -23 7 -81 14 -128 16 -93 33 -200 46 -296 5 -33 11 -74
15 -90 6 -30 6 -30 -87 -69 -115 -48 -332 -154 -413 -201 -33 -19 -69 -39 -80
-45 -11 -6 -33 -19 -50 -30 -16 -11 -37 -23 -45 -27 -25 -12 -225 -149 -303
-208 -41 -30 -79 -55 -86 -55 -36 0 -265 175 -403 308 -59 57 -108 110 -108
116 0 12 21 27 89 64 24 13 58 33 75 43 17 10 40 23 51 29 11 6 34 19 50 30
17 11 37 23 45 27 8 4 69 39 135 78 66 39 127 74 135 78 8 4 29 16 45 27 17
11 39 24 50 30 11 6 36 20 55 31 19 12 57 33 83 48 26 14 74 40 105 58 64 36
396 202 457 229 87 39 101 41 115 15z m470 -891 c85 -6 173 -14 195 -20 22 -5
57 -10 78 -10 35 0 84 -10 212 -41 22 -6 56 -14 75 -18 83 -19 179 -69 225
-116 62 -66 84 -118 151 -362 24 -88 65 -229 89 -308 6 -22 20 -67 30 -100 9
-33 23 -78 30 -100 7 -22 20 -67 30 -100 10 -33 23 -76 30 -95 7 -19 18 -51
24 -70 7 -19 16 -48 21 -65 5 -16 14 -46 21 -65 6 -19 17 -51 24 -70 7 -19 18
-51 24 -70 7 -19 16 -48 21 -65 5 -16 18 -55 30 -85 34 -88 50 -144 60 -217 5
-37 14 -95 20 -128 6 -33 18 -96 26 -140 8 -44 21 -111 29 -150 8 -38 21 -108
30 -155 8 -47 22 -114 30 -150 9 -36 15 -74 15 -85 0 -11 6 -51 14 -90 48
-227 96 -605 96 -750 0 -138 -40 -259 -118 -355 -96 -117 -249 -250 -367 -316
-106 -60 -261 -125 -375 -157 -30 -9 -80 -23 -111 -31 -31 -9 -69 -16 -85 -16
-16 0 -45 -5 -64 -11 -19 -5 -125 -16 -235 -24 -335 -24 -645 7 -823 81 -18 8
-40 14 -48 14 -9 0 -28 6 -42 13 -15 8 -43 21 -62 30 -69 30 -125 59 -155 78
-16 10 -37 22 -45 26 -71 32 -228 183 -274 263 -46 81 -59 137 -86 365 -6 47
-10 649 -10 1460 -1 863 -4 1406 -11 1450 -16 116 -27 258 -21 294 7 48 89
109 277 206 28 15 64 35 80 45 17 11 39 24 50 30 11 6 34 19 50 30 68 43 206
105 285 128 79 22 254 41 335 36 39 -2 140 -9 225 -14z m3589 -160 c41 -6 79
-16 84 -22 14 -21 0 -259 -39 -648 -21 -213 -19 -523 5 -625 21 -88 54 -168
81 -195 3 -3 41 -45 85 -95 94 -105 134 -157 157 -205 26 -55 51 -171 45 -214
-9 -66 -26 -75 -193 -96 -82 -11 -167 -20 -190 -20 -78 0 -280 -52 -306 -78
-7 -7 -17 -12 -23 -12 -19 0 -92 -83 -124 -142 -28 -51 -31 -66 -31 -139 0
-74 3 -87 31 -131 l30 -50 -40 -34 c-37 -32 -51 -55 -95 -157 -25 -59 -23
-250 4 -311 26 -57 81 -112 120 -120 17 -3 30 -12 30 -19 0 -7 -25 -40 -55
-73 -30 -32 -55 -63 -55 -68 0 -5 -8 -18 -17 -29 -15 -16 -18 -38 -18 -121 0
-102 0 -103 37 -159 21 -31 61 -75 90 -98 70 -55 218 -125 318 -149 19 -5 55
-14 80 -21 25 -6 65 -16 88 -22 51 -12 58 -24 43 -69 -6 -18 -14 -72 -18 -120
-9 -128 2 -123 -262 -123 -278 0 -520 26 -662 70 -26 8 -54 15 -63 15 -8 0
-32 7 -53 16 -140 60 -129 45 -113 151 41 290 69 576 76 797 l7 198 46 47 c68
68 91 136 91 265 0 132 -35 237 -96 285 l-27 21 0 387 c1 484 -3 467 128 598
50 50 147 144 215 211 125 120 187 196 196 244 2 14 11 54 18 90 30 137 77
582 76 718 0 29 7 100 16 158 l17 104 96 0 c53 0 129 -5 170 -10z m-2184 -997
c158 -61 303 -184 370 -313 10 -19 22 -44 28 -55 16 -32 37 -155 37 -220 0
-88 -35 -230 -72 -297 -44 -77 -153 -201 -172 -195 -11 4 -46 114 -46 148 0
15 -7 46 -15 69 -22 62 -19 80 23 159 66 125 91 163 103 155 17 -10 10 -128
-11 -187 -21 -60 -25 -69 -54 -124 -9 -17 -16 -43 -16 -57 0 -58 101 -11 136
65 29 61 44 98 44 111 0 7 7 31 15 53 26 74 15 185 -29 290 -35 81 -56 111
-111 163 -54 51 -174 132 -194 132 -25 0 -101 43 -101 57 0 9 -7 24 -16 34 -9
10 -13 23 -9 29 7 12 26 8 90 -17z m60 -336 c13 -26 13 -32 -2 -60 l-16 -31
-23 28 c-17 19 -24 39 -24 70 0 23 3 46 7 49 9 10 40 -20 58 -56z m-2915 -4
c0 -8 -34 -50 -76 -92 -113 -113 -157 -188 -208 -360 -21 -71 -22 -245 -1
-285 8 -15 15 -34 15 -41 0 -19 68 -84 95 -91 45 -11 60 -2 57 36 -2 19 -9 49
-16 65 -37 81 -46 108 -46 131 0 29 26 42 49 26 9 -7 35 -22 59 -34 l42 -22 0
-158 c0 -181 -1 -184 -74 -149 -62 31 -127 91 -197 183 l-61 79 5 117 c2 64
11 140 20 168 44 148 149 307 272 414 46 40 65 44 65 13z m2982 -205 c-19 -41
-42 -50 -42 -16 0 25 40 72 52 60 4 -4 0 -24 -10 -44z m-2983 -97 c-4 -86 -11
-101 -37 -85 -12 8 -18 27 -20 65 -4 60 12 99 41 99 18 0 19 -6 16 -79z
m-1790 9 c20 -12 46 -38 59 -60 19 -33 22 -53 22 -141 0 -97 -16 -219 -45
-339 -7 -30 -19 -77 -25 -105 -7 -27 -16 -66 -20 -85 -4 -19 -13 -57 -20 -85
-60 -246 -70 -316 -70 -476 0 -156 5 -178 38 -160 20 11 73 73 85 101 4 8 11
22 16 30 5 8 19 36 31 62 26 57 37 67 103 90 66 23 136 23 217 -1 124 -36 134
-43 150 -103 9 -34 13 -93 12 -168 -3 -128 7 -162 44 -142 41 22 129 42 183
41 106 -1 196 -56 237 -144 32 -70 33 -190 4 -284 -67 -211 -234 -415 -395
-479 -95 -38 -296 -82 -373 -82 -26 0 -76 -5 -112 -11 -201 -33 -470 82 -652
280 -92 99 -98 119 -98 350 0 189 18 483 41 661 6 47 15 119 19 160 19 179 67
437 130 695 7 28 16 68 20 90 16 82 57 177 97 222 15 17 53 47 83 67 48 32 62
36 118 36 46 0 75 -6 101 -20z m7356 -649 c22 -5 63 -14 90 -19 69 -14 147
-57 176 -95 19 -26 24 -44 24 -97 0 -79 -18 -110 -87 -145 -44 -23 -58 -25
-195 -25 -224 0 -530 34 -638 72 -16 5 -40 12 -52 15 -12 3 -38 20 -58 39 -35
32 -37 37 -32 80 9 81 75 118 282 156 28 5 70 13 95 17 60 11 345 12 395 2z
m-1628 -313 c53 -15 126 -79 157 -141 19 -37 19 -40 2 -90 -35 -103 -82 -138
-190 -140 -70 -1 -78 1 -113 29 -86 70 -88 207 -5 312 37 47 63 52 149 30z
m1228 -238 c107 -10 197 -23 381 -55 50 -8 113 -15 139 -15 68 0 165 -28 197
-58 34 -31 44 -100 30 -206 -11 -83 -24 -101 -92 -132 -84 -39 -487 -12 -757
52 -34 7 -75 14 -91 14 -71 0 -186 48 -235 98 -29 30 -31 37 -31 101 0 62 3
72 33 110 39 49 81 70 171 87 87 15 125 16 255 4z m180 -656 c61 -8 142 -22
180 -30 39 -8 80 -14 91 -14 26 0 101 -33 130 -57 48 -40 78 -116 68 -171 -9
-46 -52 -85 -122 -110 -50 -19 -81 -22 -193 -22 -74 0 -170 6 -214 14 -44 8
-125 22 -180 31 -168 29 -257 63 -327 124 -42 38 -43 40 -43 102 0 86 32 130
110 150 44 12 373 1 500 -17z m162 -624 c44 -6 92 -6 120 -1 26 5 51 7 55 5
10 -6 -13 -50 -65 -129 -47 -69 -256 -287 -269 -279 -13 8 -9 152 7 244 8 47
15 101 15 121 0 20 3 39 7 42 9 9 43 8 130 -3z"/>
<path d="M4190 7021 c-61 -25 -89 -69 -89 -144 -1 -67 14 -96 73 -138 65 -48
173 -38 236 20 94 87 52 211 -89 263 -58 21 -75 21 -131 -1z m89 -129 c13 -24
-4 -52 -33 -52 -26 0 -40 23 -31 51 8 24 51 25 64 1z"/>
<path d="M3523 7013 c-26 -5 -77 -66 -98 -117 -30 -72 -11 -150 48 -196 23
-18 41 -22 94 -22 55 0 71 4 106 29 53 36 77 83 77 150 0 57 -24 96 -83 131
-33 20 -105 33 -144 25z m88 -149 c9 -11 10 -20 2 -32 -15 -24 -42 -27 -58 -6
-27 37 26 74 56 38z"/>
<path d="M4510 6430 c-26 -15 -167 -59 -310 -96 -87 -23 -366 -24 -460 -1
-136 32 -350 33 -350 2 0 -22 60 -73 124 -103 126 -61 153 -65 476 -65 277 -1
300 1 380 22 95 26 179 62 227 97 30 23 31 25 20 61 -23 79 -62 110 -107 83z"/>
<path d="M4787 6082 c-28 -29 -37 -80 -14 -86 6 -2 30 -9 52 -15 22 -6 49 -17
60 -25 18 -13 17 -15 -23 -35 -23 -11 -48 -21 -57 -21 -9 0 -37 -6 -63 -14
-55 -16 -192 -35 -314 -43 -145 -10 -557 24 -878 72 -123 18 -300 35 -372 35
-53 0 -58 -2 -64 -25 -5 -20 2 -35 29 -68 27 -33 47 -46 94 -59 32 -10 72 -18
87 -18 40 0 170 -32 178 -44 3 -5 4 -23 1 -40 -3 -21 3 -45 21 -76 13 -25 43
-81 66 -125 23 -44 63 -120 90 -170 44 -83 106 -201 156 -300 12 -22 28 -56
36 -75 62 -143 86 -172 182 -218 105 -52 167 -64 296 -60 72 3 130 10 154 20
49 19 108 75 150 141 40 63 106 201 106 223 0 8 6 36 14 62 15 48 31 222 42
455 6 127 6 128 33 139 14 5 33 14 41 19 8 5 22 12 30 16 20 9 88 60 126 96
l32 29 19 -29 c10 -15 24 -41 31 -56 21 -49 75 -53 123 -8 19 18 20 21 5 49
-9 17 -16 38 -16 46 0 8 -11 37 -25 65 -27 52 -71 95 -127 122 -90 44 -111 49
-191 49 -78 0 -85 -2 -110 -28z m-622 -392 c105 -6 224 -15 265 -20 41 -5 78
-9 83 -10 4 0 7 -72 7 -160 0 -142 -2 -160 -18 -169 -17 -9 -353 2 -370 13 -5
3 -58 10 -117 16 -89 8 -113 14 -132 32 -13 12 -23 27 -23 34 0 11 -41 90 -70
134 -6 8 -13 22 -16 30 -3 8 -12 27 -20 42 -16 30 -19 75 -4 80 6 2 59 0 118
-4 59 -4 193 -12 297 -18z m45 -603 c0 -13 -58 -137 -65 -137 -8 0 -73 33
-100 50 -16 11 -36 23 -42 26 -50 24 55 69 170 73 25 1 37 -3 37 -12z m181
-45 c49 -33 68 -58 71 -92 l3 -35 -102 -3 c-113 -3 -115 -1 -90 54 44 99 64
113 118 76z"/>
<path d="M4036 4560 c-46 -42 -37 -53 133 -162 73 -47 168 -83 257 -98 63 -11
74 -11 97 5 15 9 27 25 27 34 0 24 -42 61 -68 61 -11 0 -23 4 -27 9 -3 5 -19
12 -35 16 -66 14 -44 45 32 45 26 0 58 4 73 10 24 9 26 14 23 56 l-3 46 -240
2 -240 2 -29 -26z"/>
<path d="M5647 3383 c-4 -3 -7 -22 -8 -42 0 -20 -4 -44 -8 -54 -7 -19 -11 -21
-136 -87 -112 -58 -118 -62 -156 -95 -168 -148 -172 -375 -8 -518 67 -59 154
-100 257 -121 88 -19 134 -17 229 10 82 24 177 96 209 159 81 159 72 284 -32
477 -8 15 -52 65 -97 111 -98 99 -228 183 -250 160z m122 -130 c61 -46 156
-150 180 -197 12 -25 26 -48 32 -51 5 -4 9 -21 9 -40 0 -19 4 -36 9 -40 33
-19 18 -154 -27 -245 -18 -38 -87 -110 -105 -110 -6 0 -18 -6 -26 -13 -20 -17
-110 -37 -159 -36 -46 0 -138 21 -177 39 -67 31 -145 101 -145 130 0 28 9 25
58 -20 56 -52 147 -102 178 -98 31 4 33 21 3 28 -14 4 -28 21 -40 50 -23 57
-23 89 -2 112 15 17 15 19 0 36 -10 11 -17 36 -17 60 l0 42 -104 0 c-58 0
-107 4 -110 9 -3 5 -1 22 5 39 9 26 17 30 62 38 42 7 53 13 55 30 2 12 14 32
28 45 l25 23 6 -23 c4 -17 11 -21 27 -16 11 3 36 8 54 12 34 6 72 44 72 72 0
19 32 121 43 139 12 18 26 15 66 -15z"/>
<path d="M5785 3115 c-16 -7 -38 -16 -49 -19 -14 -5 -17 -13 -13 -33 4 -21 -3
-37 -31 -71 -30 -36 -34 -47 -24 -62 9 -15 5 -22 -27 -44 -48 -34 -65 -80 -43
-122 20 -39 29 -44 88 -44 73 0 89 -16 89 -87 0 -54 2 -58 25 -61 34 -3 112
65 141 123 16 32 20 54 17 83 -5 31 -2 43 14 56 13 12 16 21 10 29 -5 7 -12
36 -16 65 -8 61 -37 113 -93 166 -42 40 -45 41 -88 21z m22 -165 c11 -12 30
-20 50 -20 47 0 43 -26 -4 -33 -24 -4 -48 -1 -67 8 -16 8 -34 15 -40 15 -6 0
-17 4 -25 9 -12 8 -12 12 -2 25 19 22 68 20 88 -4z"/>
</g>
</svg>
