 <svg version="1.0" xmlns="http://www.w3.org/2000/svg" width="700.000000pt" height="721.000000pt" viewBox="0 0 700.000000 721.000000" preserveAspectRatio="xMidYMid meet">
<metadata>
Created by potrace 1.12, written by Peter Selinger 2001-2015
</metadata>
<g id="freak" transform="translate(0.000000,721.000000) scale(0.100000,-0.100000)" fill="#000000" stroke="none">
<path d="M2895 7027 c-44 -19 -95 -41 -114 -51 -18 -10 -52 -24 -74 -32 -40
-14 -43 -14 -113 22 -68 35 -78 37 -166 36 -159 -1 -356 -75 -510 -191 -107
-81 -138 -148 -138 -296 0 -73 3 -70 -152 -174 -58 -39 -112 -78 -119 -87 -10
-13 -4 -24 42 -70 30 -31 81 -77 115 -102 137 -105 323 -262 363 -308 68 -77
68 -78 66 -372 l-1 -263 -55 -31 c-30 -17 -90 -67 -134 -112 -124 -125 -199
-288 -212 -461 l-6 -80 -55 -50 c-31 -27 -132 -137 -225 -243 -93 -106 -175
-196 -182 -199 -8 -2 -40 5 -72 17 -38 15 -94 24 -166 29 -59 4 -111 12 -116
17 -14 15 6 150 50 324 53 215 63 362 29 429 -30 59 -104 129 -168 159 -138
63 -344 -10 -427 -152 -55 -95 -109 -360 -192 -950 -48 -342 -56 -425 -57
-561 -1 -177 10 -234 65 -332 25 -46 29 -63 29 -132 0 -157 65 -341 212 -600
110 -193 165 -251 300 -310 134 -58 218 -74 343 -67 55 3 134 15 175 26 146
41 318 136 431 238 l52 47 -7 -243 c-3 -134 -17 -480 -31 -770 -46 -1005 -49
-1092 -32 -1109 12 -12 31 -14 113 -6 l99 8 6 410 c3 226 7 588 8 805 1 217 6
465 11 550 6 85 14 292 20 460 5 168 14 332 20 365 7 39 28 90 60 145 75 133
90 167 90 203 0 20 -7 40 -16 48 -14 12 -21 8 -50 -26 -18 -22 -36 -36 -40
-33 -4 4 1 39 11 77 15 57 16 73 6 85 -27 33 -81 -33 -81 -99 0 -33 -14 -32
-40 4 -23 34 -57 48 -73 32 -16 -16 -11 -65 11 -108 31 -60 33 -108 14 -248
l-18 -130 -106 -160 c-152 -229 -251 -317 -413 -368 -107 -33 -281 -30 -390 7
-190 65 -321 189 -420 398 -44 94 -96 261 -84 273 4 3 33 -10 65 -29 137 -82
311 -122 479 -112 129 7 195 25 330 90 98 47 118 61 170 120 129 146 233 314
281 456 14 41 19 84 19 170 0 99 -3 121 -22 155 -54 100 -139 146 -286 153
l-99 5 7 35 c11 58 48 122 130 223 89 110 253 289 264 289 5 0 34 -34 66 -76
32 -41 116 -130 187 -198 l129 -122 9 -370 c5 -203 14 -391 20 -419 45 -219
171 -397 334 -475 158 -75 381 -141 591 -176 151 -26 505 -26 650 -1 378 66
601 175 799 388 124 134 166 270 166 541 0 204 -39 474 -105 717 l-14 54 58
77 c32 43 81 116 110 164 29 47 56 86 61 86 10 0 212 -210 263 -274 l39 -50
-45 -13 c-56 -16 -109 -75 -134 -147 -24 -72 -22 -179 4 -237 27 -60 54 -85
133 -121 35 -16 69 -33 75 -38 8 -7 6 -47 -6 -142 -10 -73 -29 -263 -43 -423
-14 -159 -28 -311 -31 -338 l-6 -47 48 -30 c87 -55 225 -98 405 -124 167 -25
494 -48 627 -44 l123 3 -37 -30 c-155 -126 -332 -228 -450 -260 -94 -26 -283
-31 -390 -10 -121 22 -326 91 -347 116 -9 11 -20 45 -23 77 -4 31 -28 136 -53
232 -57 222 -62 317 -20 397 l26 52 -21 14 -22 15 34 64 c36 69 38 101 4 106
-15 2 -29 -8 -49 -39 -46 -67 -58 -64 -50 13 6 52 4 67 -8 77 -38 31 -66 -37
-66 -161 -1 -53 -7 -110 -15 -132 -10 -28 -11 -46 -4 -65 37 -97 84 -409 153
-1031 55 -488 75 -723 86 -1005 19 -494 40 -808 54 -822 2 -2 32 -6 68 -10
102 -9 108 -3 108 115 0 242 -46 788 -130 1556 -17 148 -30 281 -30 297 l0 29
48 -19 c107 -42 200 -56 372 -55 141 0 181 4 278 27 132 31 182 52 341 146
330 195 516 407 605 691 15 47 33 92 41 100 64 71 59 227 -10 332 -14 21 -25
39 -25 42 0 2 13 6 29 9 39 8 97 60 123 110 24 49 47 169 48 252 0 93 -50 154
-137 171 -18 3 -33 10 -33 14 0 4 16 20 36 35 112 86 96 286 -33 406 -58 54
-79 67 -153 90 -51 16 -55 19 -52 44 5 44 -16 163 -43 246 -21 63 -37 88 -96
155 -140 156 -154 204 -146 489 3 110 15 301 27 424 11 122 20 253 18 289 -3
62 -5 68 -35 88 -45 30 -131 43 -330 51 -179 6 -200 3 -227 -40 -15 -22 -25
-122 -46 -460 -26 -403 -52 -463 -266 -628 -216 -167 -234 -206 -234 -512 l0
-200 -72 69 c-40 39 -104 95 -143 126 -99 79 -119 102 -118 141 6 198 -4 256
-59 359 -58 110 -144 177 -428 332 -58 32 -111 63 -118 70 -7 7 -26 62 -42
123 -92 351 -180 538 -283 601 -50 31 -366 87 -647 115 l-125 12 -7 90 c-5 50
-17 142 -28 205 -17 98 -44 279 -66 448 -7 52 -13 52 -119 9z m-420 -194 c23
-13 41 -2 -267 -159 l-258 -130 0 30 c0 46 42 127 84 164 48 42 122 79 194 97
62 16 217 15 247 -2z m409 -5 c5 -23 53 -354 63 -433 l5 -41 -73 -28 c-184
-71 -482 -241 -682 -389 -68 -50 -69 -50 -100 -35 -80 38 -367 283 -367 313 0
12 500 309 750 445 106 58 376 188 392 189 4 1 10 -9 12 -21z m341 -689 c172
-14 316 -36 420 -64 235 -62 252 -84 355 -455 64 -229 183 -608 250 -795 31
-88 57 -185 70 -260 12 -66 43 -235 70 -375 64 -330 95 -520 116 -700 31 -279
4 -369 -161 -536 -156 -158 -395 -272 -664 -319 -530 -93 -1024 18 -1277 287
-61 64 -88 114 -110 200 -23 94 -34 642 -32 1588 1 708 -1 820 -15 926 -12 86
-14 129 -7 148 11 31 68 73 193 142 51 28 133 74 182 103 190 108 334 134 610
110z m2877 -135 c13 -8 9 -133 -13 -377 -26 -291 -29 -547 -6 -634 24 -91 46
-127 137 -228 108 -118 132 -166 138 -272 l4 -83 -27 -10 c-15 -6 -73 -15
-129 -21 -184 -19 -298 -39 -345 -60 -140 -61 -212 -232 -146 -344 l24 -42
-29 -21 c-47 -35 -82 -123 -88 -223 -3 -54 0 -100 8 -123 15 -47 61 -100 100
-116 16 -7 30 -15 30 -19 0 -4 -18 -25 -41 -46 -106 -103 -113 -231 -18 -338
64 -74 233 -148 433 -192 23 -5 27 -10 22 -28 -4 -12 -11 -60 -16 -106 -5 -46
-13 -88 -19 -94 -15 -15 -460 -2 -571 17 -99 17 -246 58 -291 82 -25 13 -26
14 -17 76 27 199 49 414 59 591 l11 202 28 22 c49 40 75 115 75 218 -1 100
-21 162 -71 211 l-26 27 -1 291 c-1 391 -9 364 174 538 193 183 235 235 253
318 26 115 36 190 56 445 11 138 23 274 26 304 l7 54 131 -7 c72 -4 134 -10
138 -12z m-1707 -794 c185 -91 285 -239 285 -424 0 -133 -43 -244 -134 -344
-35 -38 -51 -50 -57 -40 -4 7 -19 60 -33 117 l-25 104 39 76 c22 42 50 87 61
101 l20 25 -4 -71 c-3 -52 -13 -92 -39 -150 -19 -44 -32 -86 -30 -92 7 -22 44
-12 76 21 53 53 80 135 80 247 1 85 -2 102 -30 160 -48 103 -139 178 -286 238
-16 7 -28 19 -28 28 0 10 -8 26 -17 37 -18 20 -17 20 12 13 17 -3 66 -24 110
-46z m-11 -223 c17 -23 18 -30 7 -54 l-13 -28 -19 24 c-21 26 -27 95 -7 89 6
-2 21 -16 32 -31z m-2264 -13 c0 -8 -28 -43 -63 -78 -108 -108 -167 -250 -167
-402 0 -59 5 -88 21 -122 31 -63 110 -106 125 -68 3 7 -6 42 -20 76 -25 61
-34 120 -18 120 4 0 27 -10 53 -22 l45 -23 1 -122 c1 -67 -2 -125 -7 -128 -15
-10 -76 21 -120 61 -23 21 -62 67 -87 102 l-46 64 6 82 c11 153 77 295 192
412 63 65 85 77 85 48z m2338 -121 c-26 -53 -44 -83 -51 -83 -13 0 3 43 26 68
20 22 31 29 25 15z m-2338 -100 c0 -27 -3 -58 -6 -71 -10 -37 -34 -7 -34 43 0
53 8 75 26 75 10 0 14 -14 14 -47z m-1395 -7 c51 -22 69 -65 68 -163 -2 -100
-12 -157 -68 -393 -62 -260 -78 -366 -72 -483 2 -53 7 -100 11 -104 13 -13 66
52 106 129 44 85 65 102 140 113 60 9 182 -19 218 -50 26 -23 27 -26 31 -154
1 -72 6 -131 10 -131 3 0 28 7 55 15 68 21 162 19 213 -4 122 -56 137 -229 35
-426 -52 -101 -176 -224 -257 -255 -117 -44 -239 -63 -400 -64 -141 -1 -154 1
-213 25 -100 43 -172 89 -242 159 -104 103 -104 101 -97 384 8 355 46 664 123
1011 62 276 79 313 170 374 54 35 111 41 169 17z m5777 -517 c71 -15 146 -57
164 -91 32 -63 8 -145 -53 -173 -51 -25 -115 -28 -288 -16 -269 19 -402 48
-457 98 -11 9 -18 30 -18 50 0 63 47 90 222 128 78 17 356 19 430 4z m-1280
-251 c49 -24 92 -88 90 -133 -3 -72 -45 -119 -123 -136 -114 -26 -191 71 -155
196 21 72 63 108 115 99 20 -4 53 -15 73 -26z m1078 -189 c74 -11 183 -26 242
-34 59 -8 120 -21 137 -29 44 -23 58 -76 44 -167 -17 -108 -39 -119 -231 -119
-136 0 -271 16 -489 59 -172 33 -218 67 -218 156 0 63 22 99 78 128 79 41 190
43 437 6z m-70 -485 c170 -19 314 -48 346 -69 63 -41 87 -153 42 -194 -63 -59
-217 -70 -448 -31 -226 37 -332 81 -360 149 -24 59 6 124 70 150 38 15 199 13
350 -5z m291 -537 c-38 -67 -131 -177 -190 -227 l-51 -42 0 59 c0 55 17 225
25 249 2 7 44 11 123 10 l121 -1 -28 -48z"></path>
<path d="M3254 5466 c-21 -10 -36 -27 -47 -55 -21 -51 -21 -74 -2 -111 35 -68
114 -95 187 -62 61 27 83 55 83 107 0 96 -124 163 -221 121z m81 -111 c0 -22
-31 -33 -47 -17 -17 17 -1 44 24 40 15 -2 23 -10 23 -23z"></path>
<path d="M2715 5437 c-95 -95 -57 -237 63 -237 89 0 157 68 149 148 -5 50 -27
78 -82 103 -60 28 -92 24 -130 -14z m103 -103 c3 -22 -21 -39 -39 -28 -11 6
-12 38 -2 48 13 13 38 1 41 -20z"></path>
<path d="M3445 4985 c-213 -71 -335 -80 -568 -43 -147 23 -232 19 -232 -11 0
-26 83 -80 158 -103 66 -21 91 -23 312 -23 201 0 250 3 304 18 68 20 175 69
186 87 8 13 -35 103 -50 106 -5 1 -55 -13 -110 -31z"></path>
<path d="M3753 4756 c-55 -25 -54 -96 1 -96 31 0 64 -26 51 -39 -6 -6 -48 -20
-95 -32 -171 -43 -540 -37 -910 16 -96 14 -219 25 -272 25 -92 0 -98 -1 -98
-20 0 -56 55 -90 180 -110 36 -6 79 -16 97 -21 28 -9 32 -14 27 -37 -4 -22 20
-76 117 -257 67 -127 143 -275 169 -330 54 -115 89 -151 177 -186 71 -27 225
-37 293 -19 62 16 127 86 179 191 53 108 71 200 79 419 l7 174 58 33 c32 18
78 49 103 69 24 20 46 35 48 33 2 -2 13 -23 25 -47 12 -24 28 -45 36 -48 21
-9 75 24 75 46 0 35 -41 125 -72 157 -64 66 -210 108 -275 79z m-534 -321
c135 -9 261 -18 280 -21 l34 -5 -6 -120 c-3 -66 -9 -124 -13 -131 -9 -14 -223
-4 -369 17 -55 8 -103 15 -107 15 -11 0 -118 217 -118 240 0 25 -15 24 299 5z
m61 -470 c0 -20 -36 -91 -50 -100 -11 -7 -120 53 -120 66 0 4 19 14 43 23 37
13 55 17 115 25 6 0 12 -6 12 -14z m157 -50 c22 -19 43 -46 45 -60 l5 -25 -83
0 c-55 0 -84 4 -84 11 0 19 54 109 66 109 6 0 29 -16 51 -35z"></path>
<path d="M3145 3560 c-25 -28 -17 -48 33 -85 74 -55 175 -102 258 -121 73 -16
77 -16 95 2 32 33 15 58 -57 84 -35 12 -64 26 -64 31 0 8 39 17 100 21 34 3
35 5 35 42 l0 39 -192 2 c-170 2 -194 1 -208 -15z"></path>
<path d="M4397 2644 c-4 -4 -4 -17 -1 -30 10 -38 -12 -61 -107 -111 -171 -90
-224 -156 -224 -283 0 -92 21 -137 95 -203 64 -58 142 -88 243 -95 129 -8 226
33 285 123 111 167 27 407 -194 555 -77 51 -86 55 -97 44z m152 -161 c95 -95
123 -151 129 -251 4 -63 1 -79 -23 -128 -46 -94 -138 -142 -253 -131 -76 6
-150 39 -197 87 -50 51 -37 76 14 27 51 -49 112 -79 147 -75 l29 4 -27 11
c-14 7 -29 17 -33 23 -4 6 -8 54 -10 105 -2 52 -6 99 -10 104 -3 6 -39 9 -85
7 -85 -4 -93 1 -70 45 8 13 21 19 45 19 25 0 35 5 35 15 0 19 52 75 70 75 7 0
2 -9 -11 -19 -21 -17 -22 -20 -7 -26 9 -4 25 -2 37 4 11 6 29 11 40 11 23 0
35 19 46 70 11 53 33 100 46 100 6 0 46 -35 88 -77z"></path>
<path d="M4514 2435 c-4 -8 -17 -15 -30 -15 -23 0 -28 -8 -25 -41 1 -8 -12
-28 -28 -45 -17 -16 -31 -32 -31 -36 0 -13 45 -9 58 4 18 18 45 19 65 0 10 -9
24 -17 30 -18 34 -3 38 -5 33 -13 -10 -15 -55 -19 -73 -5 -10 7 -34 14 -54 14
-70 0 -131 -86 -96 -135 11 -14 31 -21 73 -25 47 -4 58 -9 61 -25 6 -28 5 -37
-2 -62 -19 -61 82 -18 125 53 13 20 24 51 25 68 2 17 6 44 10 60 5 20 4 31 -6
37 -12 7 -12 10 -1 18 22 13 -23 105 -71 146 -45 39 -55 42 -63 20z m106 -215
c6 -11 8 -20 6 -20 -3 0 -10 9 -16 20 -6 11 -8 20 -6 20 3 0 10 -9 16 -20z"></path>
</g>
</svg>
