 <svg version="1.0" xmlns="http://www.w3.org/2000/svg" width="700.000000pt" height="616.000000pt" viewBox="0 0 700.000000 616.000000" preserveAspectRatio="xMidYMid meet">
<metadata>
Created by potrace 1.12, written by Peter Selinger 2001-2015
</metadata>
<g id="exclamationMark" transform="translate(0.000000,616.000000) scale(0.100000,-0.100000)" fill="#000000" stroke="none">
<path d="M3362 6142 c-74 -27 -155 -85 -206 -149 -55 -70 -104 -156 -1711
-2998 -395 -698 -873 -1544 -1063 -1880 -194 -343 -353 -636 -364 -668 -53
-169 23 -338 185 -413 l62 -29 3250 0 3250 0 56 26 c66 31 119 83 151 147 18
38 23 63 23 137 0 117 8 100 -390 795 -175 305 -449 785 -610 1065 -161 281
-489 854 -730 1275 -241 421 -506 884 -590 1030 -84 146 -298 519 -475 830
-356 623 -377 656 -451 730 -108 105 -262 146 -387 102z m276 -757 c82 -143
310 -541 507 -885 514 -897 1477 -2578 2146 -3747 91 -161 164 -294 161 -297
-8 -9 -5910 -7 -5916 2 -2 4 221 405 496 892 275 487 528 935 562 995 115 203
638 1128 746 1320 130 230 1121 1977 1127 1988 3 5 9 5 14 0 4 -4 75 -125 157
-268z"></path>
<path d="M3360 4287 c-127 -43 -224 -117 -292 -222 -75 -115 -83 -191 -49
-450 11 -82 34 -253 50 -380 186 -1424 170 -1312 207 -1385 47 -94 126 -142
230 -142 103 1 179 55 228 162 25 55 36 122 85 510 23 174 66 503 111 845 17
127 40 300 51 385 35 264 26 340 -49 455 -129 197 -371 291 -572 222z"></path>
<path d="M3390 1484 c-198 -72 -292 -298 -205 -492 32 -72 112 -152 182 -185
68 -30 198 -30 266 0 70 32 149 112 183 186 39 83 40 201 4 292 -28 72 -107
156 -177 187 -65 28 -191 34 -253 12z"></path>
</g>
</svg>
